<svg xmlns="http://www.w3.org/2000/svg" width="154.533" height="30" viewBox="0 0 154.533 30">
  <g id="Group_375" data-name="Group 375" transform="translate(-801 -216.807)">
    <g id="Group_20" data-name="Group 20" transform="translate(801 216.807)">
      <g id="Group_10" data-name="Group 10" transform="translate(0 0)">
        <path id="Path_321" data-name="Path 321" d="M17.9,66.1,11.1,80.186a21,21,0,0,0,11.662,4.081c6.747.125,10.52-5.37,10.447-11.366C33.228,72.919,25.247,73.761,17.9,66.1ZM15.308,79.774a.261.261,0,0,1-.145-.34l4.063-8.591a.281.281,0,0,1,.508.233l-4.063,8.591A.262.262,0,0,1,15.308,79.774Zm2.3,1.038a.261.261,0,0,1-.145-.34l4.063-8.591a.281.281,0,0,1,.508.233l-4.063,8.591A.278.278,0,0,1,17.611,80.813Zm2.866.877a.281.281,0,0,1-.508-.233l4.063-8.591a.281.281,0,0,1,.508.233Zm6.548-7.446L23.47,82.119a.251.251,0,0,1-.345.089.246.246,0,0,1-.163-.322l3.555-7.875a.251.251,0,0,1,.345-.089A.278.278,0,0,1,27.025,74.244Z" transform="translate(-11.1 -54.269)" fill="#fff"/>
        <path id="Path_322" data-name="Path 322" d="M114.429,0,100.3,6.748s14.528,13.1,1.161,23.25c0,0,14.637-6.139,2.575-22.731l9.649-4.815s9.359,13.281-5.006,23.071C108.679,25.541,125.892,18.06,114.429,0Z" transform="translate(-84.122)" fill="#fff"/>
        <path id="Path_323" data-name="Path 323" d="M151.819,34.99a7.689,7.689,0,0,0-1.614-.465l-1.125-3.9a2.093,2.093,0,0,1,1.759,1.575l.78-.054s-.707-2.327-2.557-2.47h-.272l-.308-1.074-.363.107.308,1.038c-1.342.394-1.741,2.416-1,4.117a3.078,3.078,0,0,0,2.684,1.754l1.251,4.3c-1.542-.072-2.14-2.112-2.14-2.112l-.78.179s.871,3.222,3.21,2.9l.435,1.521.363-.107-.435-1.486C154.557,40.055,153.65,35.777,151.819,34.99Zm-3.845-2.721c-.091-.984.236-1.486.725-1.611l1.088,3.777A2.069,2.069,0,0,1,147.973,32.269Zm3.845,7.607a.139.139,0,0,0-.073.018l-1.215-4.206a4.463,4.463,0,0,1,.907.268C152.635,36.475,153.687,39.518,151.819,39.876Z" transform="translate(-122.4 -23.481)" fill="#fff"/>
        <path id="Path_324" data-name="Path 324" d="M25.678,66.1,20.6,76.606c.8.072,2.031.161,3.573.2l2.811-5.96a.281.281,0,0,1,.508.233L24.79,76.8c.689,0,1.415,0,2.176-.036l2.322-4.9a.281.281,0,0,1,.508.233L27.6,76.75c.78-.036,1.6-.09,2.43-.179l1.759-3.723a.281.281,0,0,1,.508.233L30.684,76.5c.852-.09,1.741-.215,2.63-.376l.961-2.112a.251.251,0,0,1,.345-.089.246.246,0,0,1,.163.322l-.8,1.772a32.766,32.766,0,0,0,6.965-2.13,8.6,8.6,0,0,0,.018-.967C41,72.919,33.024,73.761,25.678,66.1Z" transform="translate(-18.877 -54.269)" fill="#fff" opacity="0.15"/>
        <path id="Path_325" data-name="Path 325" d="M114.429,0,100.3,6.748s6.294,5.674,6.783,12.457a18.874,18.874,0,0,0,1.687-.895c-.218-3.007-1.542-6.658-4.734-11.043l9.649-4.815a18.848,18.848,0,0,1,2.9,8.09,21.15,21.15,0,0,0,1.306-2.81A26.452,26.452,0,0,0,114.429,0Z" transform="translate(-84.122)" fill="#fff" opacity="0.15"/>
        <g id="Group_5" data-name="Group 5" transform="translate(24.659 5.119)" opacity="0.15">
          <path id="Path_326" data-name="Path 326" d="M155.48,79.9l-.78.179a5.571,5.571,0,0,0,1.179,2.13c.254-.2.49-.394.725-.591A3.78,3.78,0,0,1,155.48,79.9Z" transform="translate(-153.314 -70.718)" fill="#fff"/>
          <path id="Path_327" data-name="Path 327" d="M151.819,34.99a7.689,7.689,0,0,0-1.614-.465l-1.125-3.9a2.093,2.093,0,0,1,1.759,1.575l.78-.054s-.707-2.327-2.557-2.47h-.272l-.308-1.074-.363.107.308,1.038c-1.342.394-1.741,2.416-1,4.117a3.078,3.078,0,0,0,2.684,1.754l.943,3.258c.109-.089.2-.2.308-.286l-.834-2.9a4.463,4.463,0,0,1,.907.268,2.569,2.569,0,0,1,1.125,1.36c.218-.251.417-.5.617-.752A2.923,2.923,0,0,0,151.819,34.99Zm-3.845-2.721c-.091-.984.236-1.486.725-1.611l1.088,3.777A2.069,2.069,0,0,1,147.973,32.269Z" transform="translate(-147.059 -28.6)" fill="#fff"/>
        </g>
      </g>
      <text id="Crédito_Folha" data-name="Crédito Folha" transform="translate(40.534 24.097)" fill="#fff" font-size="20" font-family="Roboto-Medium, Roboto" font-weight="500" letter-spacing="-0.023em"><tspan x="0" y="0">Crédito Folha</tspan></text>
    </g>
  </g>
</svg>
