<svg id="Grupo_987" data-name="Grupo 987" xmlns="http://www.w3.org/2000/svg" width="26.416" height="26.179" viewBox="0 0 26.416 26.179">
  <g id="Grupo_684" data-name="Grupo 684" transform="translate(10.436 1.051)">
    <path id="Caminho_898" data-name="Caminho 898" d="M120.124,19.141l-5.515,0,2.745-5.372,2.657,5.164Z" transform="translate(-114.61 -13.765)" fill="#d69400" fill-rule="evenodd"/>
  </g>
  <g id="Grupo_685" data-name="Grupo 685">
    <path id="Caminho_899" data-name="Caminho 899" d="M125.2,38.328l-13.046-24.75L99.169,38.327h-.211l13.192-26.138,13.223,26.139Z" transform="translate(-98.958 -12.189)" fill="#13203f" fill-rule="evenodd"/>
  </g>
  <g id="Grupo_700" data-name="Grupo 700" transform="translate(0.148 6.127)">
    <g id="Grupo_686" data-name="Grupo 686" transform="translate(5.026 14.822)">
      <path id="Caminho_900" data-name="Caminho 900" d="M112.378,48.838h-5.66l2.794-5.23Zm-5.225-.261h4.785l-2.423-4.422Z" transform="translate(-106.718 -43.608)" fill="#13203f"/>
    </g>
    <g id="Grupo_687" data-name="Grupo 687" transform="translate(10.249 14.822)">
      <path id="Caminho_901" data-name="Caminho 901" d="M120.211,48.838h-5.66l2.794-5.23Zm-5.225-.261h4.786l-2.424-4.422Z" transform="translate(-114.551 -43.608)" fill="#13203f"/>
    </g>
    <g id="Grupo_688" data-name="Grupo 688" transform="translate(15.472 14.822)">
      <path id="Caminho_902" data-name="Caminho 902" d="M128.045,48.838h-5.661l2.794-5.23Zm-5.226-.261H127.6l-2.423-4.422Z" transform="translate(-122.384 -43.608)" fill="#13203f"/>
    </g>
    <g id="Grupo_689" data-name="Grupo 689" transform="translate(7.671 9.926)">
      <path id="Caminho_903" data-name="Caminho 903" d="M116.275,41.5h-5.591l2.8-5.233Zm-5.157-.261h4.722l-2.361-4.419Z" transform="translate(-110.684 -36.266)" fill="#13203f"/>
    </g>
    <g id="Grupo_690" data-name="Grupo 690" transform="translate(12.893 9.926)">
      <path id="Caminho_904" data-name="Caminho 904" d="M124.109,41.5h-5.592l2.8-5.233Zm-5.157-.261h4.723l-2.362-4.419Z" transform="translate(-118.517 -36.266)" fill="#13203f"/>
    </g>
    <g id="Grupo_691" data-name="Grupo 691" transform="translate(10.249 5.103)">
      <path id="Caminho_905" data-name="Caminho 905" d="M120.211,34.262h-5.66l2.794-5.23ZM114.986,34h4.786l-2.424-4.423Z" transform="translate(-114.551 -29.032)" fill="#13203f"/>
    </g>
    <g id="Grupo_692" data-name="Grupo 692" transform="translate(12.893)">
      <path id="Caminho_906" data-name="Caminho 906" d="M124.2,26.819h-5.689l2.928-5.441.229.123-2.721,5.057H124.2Z" transform="translate(-118.516 -21.378)" fill="#13203f"/>
    </g>
    <g id="Grupo_693" data-name="Grupo 693" transform="translate(7.599 0.204)">
      <path id="Caminho_907" data-name="Caminho 907" d="M116.311,26.921h-5.735v-.261h5.289l-2.723-4.848.227-.128Z" transform="translate(-110.577 -21.685)" fill="#13203f"/>
    </g>
    <g id="Grupo_694" data-name="Grupo 694" transform="translate(4.97 5.246)">
      <path id="Caminho_908" data-name="Caminho 908" d="M112.355,34.334h-5.721v-.261h5.271l-2.689-4.7.226-.129Z" transform="translate(-106.634 -29.246)" fill="#13203f"/>
    </g>
    <g id="Grupo_695" data-name="Grupo 695" transform="translate(15.467 5.234)">
      <path id="Caminho_909" data-name="Caminho 909" d="M128.14,34.327h-5.764l2.864-5.1.227.128-2.646,4.712h5.318Z" transform="translate(-122.377 -29.228)" fill="#13203f"/>
    </g>
    <g id="Grupo_696" data-name="Grupo 696" transform="translate(2.533 10.056)">
      <path id="Caminho_910" data-name="Caminho 910" d="M108.494,41.564h-5.515V41.3h5.063L105.3,36.591l.225-.131Z" transform="translate(-102.978 -36.46)" fill="#13203f"/>
    </g>
    <g id="Grupo_697" data-name="Grupo 697" transform="translate(18.041 10.137)">
      <path id="Caminho_911" data-name="Caminho 911" d="M131.819,41.6h-5.582l2.931-5.022.225.131-2.7,4.63h5.128Z" transform="translate(-126.237 -36.582)" fill="#13203f"/>
    </g>
    <g id="Grupo_698" data-name="Grupo 698" transform="translate(0 15.031)">
      <path id="Caminho_912" data-name="Caminho 912" d="M104.646,48.943H99.18v-.261H104.2l-2.6-4.632.227-.128Z" transform="translate(-99.18 -43.923)" fill="#13203f"/>
    </g>
    <g id="Grupo_699" data-name="Grupo 699" transform="translate(20.69 15.031)">
      <path id="Caminho_913" data-name="Caminho 913" d="M135.656,48.943H130.21l2.82-5.02.227.128-2.6,4.632h5Z" transform="translate(-130.21 -43.923)" fill="#13203f"/>
    </g>
  </g>
</svg>
