<svg xmlns="http://www.w3.org/2000/svg" width="146.245" height="30" viewBox="0 0 146.245 30">
  <g id="Group_32" data-name="Group 32" transform="translate(-309.974 10)">
    <g id="Group_10" data-name="Group 10" transform="translate(309.974 -10)">
      <path id="Path_321" data-name="Path 321" d="M18.392,66.1,11.1,80.186a23.454,23.454,0,0,0,12.5,4.081c7.234.125,11.278-5.37,11.2-11.366C34.823,72.919,26.267,73.761,18.392,66.1ZM15.611,79.774a.255.255,0,0,1-.156-.34l4.356-8.591a.291.291,0,0,1,.389-.107.255.255,0,0,1,.156.34L16,79.667A.291.291,0,0,1,15.611,79.774Zm2.47,1.038a.255.255,0,0,1-.156-.34l4.356-8.591a.291.291,0,0,1,.389-.107.255.255,0,0,1,.156.34L18.47,80.705A.309.309,0,0,1,18.081,80.813Zm3.072.877a.291.291,0,0,1-.389.107.255.255,0,0,1-.156-.34l4.356-8.591a.291.291,0,0,1,.389-.107.255.255,0,0,1,.156.34Zm7.02-7.446-3.811,7.875a.28.28,0,0,1-.369.09.243.243,0,0,1-.175-.322l3.811-7.875A.28.28,0,0,1,28,73.922.273.273,0,0,1,28.173,74.244Z" transform="translate(-11.1 -54.269)" fill="#fff"/>
      <path id="Path_322" data-name="Path 322" d="M115.448,0,100.3,6.748s15.576,13.1,1.244,23.25c0,0,15.692-6.139,2.761-22.731l10.345-4.815s10.034,13.281-5.367,23.071C109.284,25.541,127.737,18.06,115.448,0Z" transform="translate(-82.955)" fill="#fff"/>
      <path id="Path_323" data-name="Path 323" d="M152.162,34.99a8.7,8.7,0,0,0-1.731-.465l-1.206-3.9a2.2,2.2,0,0,1,1.886,1.575l.836-.054s-.758-2.327-2.742-2.47h-.292l-.331-1.074-.389.107.331,1.038c-1.439.394-1.867,2.416-1.069,4.117a3.325,3.325,0,0,0,2.878,1.754l1.342,4.3c-1.653-.072-2.295-2.112-2.295-2.112l-.836.179s.933,3.222,3.442,2.9l.467,1.521.389-.107-.467-1.486C155.1,40.055,154.126,35.777,152.162,34.99Zm-4.122-2.721c-.1-.984.253-1.486.778-1.611l1.167,3.777A2.125,2.125,0,0,1,148.039,32.269Zm4.122,7.607a.157.157,0,0,0-.078.018l-1.3-4.206a5.048,5.048,0,0,1,.972.268C153.037,36.475,154.165,39.518,152.162,39.876Z" transform="translate(-120.621 -23.481)" fill="#fff"/>
      <path id="Path_324" data-name="Path 324" d="M26.045,66.1,20.6,76.606c.856.072,2.178.161,3.831.2l3.014-5.96a.291.291,0,0,1,.389-.107.255.255,0,0,1,.156.34l-2.9,5.728c.739,0,1.517,0,2.333-.036l2.489-4.9a.291.291,0,0,1,.389-.107.255.255,0,0,1,.156.34L28.106,76.75c.836-.036,1.711-.09,2.606-.179L32.6,72.848a.291.291,0,0,1,.389-.107.255.255,0,0,1,.156.34L31.412,76.5c.914-.09,1.867-.215,2.82-.376l1.031-2.112a.28.28,0,0,1,.369-.089.243.243,0,0,1,.175.322l-.856,1.772a37.025,37.025,0,0,0,7.467-2.13,8.019,8.019,0,0,0,.019-.967C42.476,72.919,33.92,73.761,26.045,66.1Z" transform="translate(-18.753 -54.269)" fill="#fff" opacity="0.15"/>
      <path id="Path_325" data-name="Path 325" d="M115.448,0,100.3,6.748s6.748,5.674,7.273,12.457c.622-.268,1.225-.573,1.808-.895-.233-3.007-1.653-6.658-5.075-11.043l10.345-4.815a18.136,18.136,0,0,1,3.111,8.09,20.525,20.525,0,0,0,1.4-2.81A25.6,25.6,0,0,0,115.448,0Z" transform="translate(-82.955)" fill="#fff" opacity="0.15"/>
      <g id="Group_5" data-name="Group 5" transform="translate(26.438 5.119)" opacity="0.15">
        <path id="Path_326" data-name="Path 326" d="M155.536,79.9l-.836.179a5.452,5.452,0,0,0,1.264,2.13c.272-.2.525-.394.778-.591A3.747,3.747,0,0,1,155.536,79.9Z" transform="translate(-153.214 -70.718)" fill="#fff"/>
        <path id="Path_327" data-name="Path 327" d="M152.162,34.99a8.7,8.7,0,0,0-1.731-.465l-1.206-3.9a2.2,2.2,0,0,1,1.886,1.575l.836-.054s-.758-2.327-2.742-2.47h-.292l-.331-1.074-.389.107.331,1.038c-1.439.394-1.867,2.416-1.069,4.117a3.325,3.325,0,0,0,2.878,1.754l1.011,3.258c.117-.089.214-.2.331-.286l-.894-2.9a5.048,5.048,0,0,1,.972.268,2.624,2.624,0,0,1,1.206,1.36c.233-.251.447-.5.661-.752A3,3,0,0,0,152.162,34.99Zm-4.122-2.721c-.1-.984.253-1.486.778-1.611l1.167,3.777A2.125,2.125,0,0,1,148.039,32.269Z" transform="translate(-147.059 -28.6)" fill="#fff"/>
      </g>
    </g>
    <text id="Crédito_Folha" data-name="Crédito Folha" transform="translate(353.219 11.923)" fill="#fff" font-size="18" font-family="Roboto-Medium, Roboto" font-weight="500" letter-spacing="-0.023em"><tspan x="0" y="0">Crédito Folha</tspan></text>
  </g>
</svg>
