<svg xmlns="http://www.w3.org/2000/svg" width="312.591" height="60" viewBox="0 0 312.591 60">
  <g id="Grupo_727" data-name="Grupo 727" transform="translate(5 -209)">
    <g id="Grupo_725" data-name="Grupo 725" transform="translate(-1.766 209)">
      <g id="Grupo_683" data-name="Grupo 683" transform="translate(2.81 49.545)">
        <path id="Caminho_878" data-name="Caminho 878" d="M19.565,69.763c0-1.588,0-1.88-.021-2.215-.021-.355-.1-.522-.45-.6a2.133,2.133,0,0,0-.407-.031c-.115,0-.178-.021-.178-.093s.073-.094.231-.094c.282,0,.585.01.846.01s.511.021.657.021c.334,0,2.413,0,2.612-.01a4.166,4.166,0,0,0,.449-.063.994.994,0,0,1,.167-.042c.052,0,.063.042.063.094a6.664,6.664,0,0,0-.084.679c-.01.1-.03.564-.051.689-.01.052-.031.115-.1.115s-.094-.052-.094-.147a1.134,1.134,0,0,0-.062-.375c-.073-.189-.178-.313-.7-.376-.177-.021-1.274-.042-1.483-.042-.052,0-.073.031-.073.1v2.642c0,.072.01.114.073.114.23,0,1.431,0,1.671-.021s.408-.051.5-.156c.072-.084.114-.136.167-.136s.073.021.073.084-.042.23-.084.763c-.01.209-.042.626-.042.7s0,.2-.093.2a.082.082,0,0,1-.094-.093,2.746,2.746,0,0,0-.042-.376c-.052-.209-.2-.366-.585-.408-.2-.02-1.233-.03-1.483-.03-.052,0-.063.041-.063.1V71.6c0,.355-.01,1.316,0,1.619.021.72.189.877,1.253.877a2.643,2.643,0,0,0,.982-.126c.271-.125.4-.345.47-.772.021-.115.042-.157.115-.157s.083.084.083.189a8.164,8.164,0,0,1-.135,1.159c-.073.271-.168.271-.564.271-.784,0-1.358-.021-1.807-.031s-.772-.031-1.086-.031c-.115,0-.345,0-.6.01s-.512.021-.721.021c-.135,0-.209-.031-.209-.1,0-.051.042-.083.167-.083a1.7,1.7,0,0,0,.376-.042c.209-.042.261-.271.3-.574.052-.439.052-1.264.052-2.225Z" transform="translate(-18.51 -64.321)" fill="#13203f"/>
        <path id="Caminho_879" data-name="Caminho 879" d="M34.147,66.856c.031-.178.093-.272.177-.272s.147.052.282.324l2.851,5.807,2.841-5.88c.083-.168.135-.251.23-.251s.156.1.188.324l.951,6.392c.094.657.2.96.511,1.054a2.085,2.085,0,0,0,.648.1c.094,0,.168.01.168.072,0,.084-.126.115-.272.115-.261,0-1.7-.021-2.119-.052-.241-.021-.3-.052-.3-.114s.042-.084.114-.115.094-.157.052-.45l-.627-4.543H39.8L37.52,74.031c-.24.491-.292.585-.386.585s-.2-.209-.366-.522c-.25-.481-1.076-2.078-1.2-2.371-.094-.219-.721-1.452-1.086-2.235H34.44L33.9,73.561a4.115,4.115,0,0,0-.031.491c0,.2.135.292.313.334a2,2,0,0,0,.438.052c.084,0,.157.021.157.072,0,.094-.094.115-.251.115-.438,0-.908-.031-1.1-.031s-.7.031-1.033.031c-.1,0-.189-.021-.189-.115,0-.051.063-.072.168-.072a1.34,1.34,0,0,0,.313-.031c.292-.063.375-.471.428-.825Z" transform="translate(-19.16 -64.318)" fill="#13203f"/>
        <path id="Caminho_880" data-name="Caminho 880" d="M52.512,69.767c0-1.588,0-1.88-.021-2.215-.021-.355-.1-.522-.45-.6a2.133,2.133,0,0,0-.407-.031c-.115,0-.178-.021-.178-.093s.073-.094.23-.094c.553,0,1.211.031,1.5.031.429,0,1.034-.031,1.514-.031a2.546,2.546,0,0,1,1.943.6,1.816,1.816,0,0,1,.522,1.243A2.457,2.457,0,0,1,54.6,71.1a1.547,1.547,0,0,1-.22-.01c-.052-.01-.125-.021-.125-.094s.072-.114.292-.114a1.644,1.644,0,0,0,1.4-1.723,2.01,2.01,0,0,0-.616-1.567,1.551,1.551,0,0,0-1.044-.408,1.475,1.475,0,0,0-.408.042c-.052.021-.084.084-.084.2V71.6c0,.961,0,1.786.052,2.236.031.292.094.522.408.564a4.37,4.37,0,0,0,.532.042c.115,0,.167.031.167.083,0,.073-.083.1-.2.1-.69,0-1.347-.031-1.618-.031-.241,0-.9.031-1.316.031-.135,0-.209-.031-.209-.1,0-.051.042-.083.167-.083a1.7,1.7,0,0,0,.376-.042c.209-.042.261-.271.3-.574.052-.439.052-1.264.052-2.225Z" transform="translate(-20.075 -64.325)" fill="#13203f"/>
        <path id="Caminho_881" data-name="Caminho 881" d="M66.984,69.767c0-1.588,0-1.88-.021-2.215-.021-.355-.1-.522-.449-.6a2.144,2.144,0,0,0-.408-.031c-.114,0-.177-.021-.177-.093s.073-.094.23-.094c.553,0,1.212.031,1.431.031.355,0,1.149-.031,1.473-.031a3.345,3.345,0,0,1,1.922.449,1.812,1.812,0,0,1,.71,1.432,2.929,2.929,0,0,1-1.378,2.339c.93,1.17,1.65,2.1,2.266,2.746a2.083,2.083,0,0,0,1.17.711,1.64,1.64,0,0,0,.292.031c.084,0,.126.031.126.083,0,.084-.073.1-.2.1h-.992a2.129,2.129,0,0,1-1.117-.2A5.045,5.045,0,0,1,70.432,72.9c-.418-.574-.9-1.285-1.034-1.441a.218.218,0,0,0-.188-.073l-.909-.021c-.052,0-.084.021-.084.084v.146c0,.972,0,1.8.052,2.236.031.3.094.532.408.574a4.769,4.769,0,0,0,.511.042c.083,0,.125.031.125.083,0,.073-.072.1-.209.1-.606,0-1.378-.031-1.535-.031-.2,0-.856.031-1.273.031-.136,0-.21-.031-.21-.1,0-.051.042-.083.168-.083a1.708,1.708,0,0,0,.376-.042c.209-.042.261-.271.3-.574.052-.439.052-1.264.052-2.225Zm1.233.825c0,.114.021.156.094.188a2.742,2.742,0,0,0,.793.1,1.039,1.039,0,0,0,.741-.178,1.839,1.839,0,0,0,.616-1.566,1.671,1.671,0,0,0-1.6-1.912,2.282,2.282,0,0,0-.553.042c-.073.021-.094.063-.094.147Z" transform="translate(-20.762 -64.325)" fill="#13203f"/>
        <path id="Caminho_882" data-name="Caminho 882" d="M82.553,69.647c0-1.588,0-1.88-.021-2.215-.021-.355-.1-.522-.449-.6a2.145,2.145,0,0,0-.408-.031c-.114,0-.177-.021-.177-.093s.073-.094.23-.094c.282,0,.585.01.846.01s.512.021.658.021c.334,0,2.413,0,2.611-.01a4.119,4.119,0,0,0,.449-.063.982.982,0,0,1,.168-.042c.052,0,.063.042.063.094a6.665,6.665,0,0,0-.084.679c-.01.1-.031.564-.052.689-.01.052-.031.115-.1.115s-.093-.052-.093-.147a1.115,1.115,0,0,0-.063-.375c-.073-.189-.177-.313-.7-.376-.177-.021-1.273-.042-1.483-.042-.051,0-.072.031-.072.1v2.642c0,.072.01.114.072.114.23,0,1.432,0,1.672-.021s.407-.051.5-.156c.073-.084.115-.136.167-.136s.073.021.073.084-.042.23-.084.763c-.01.209-.041.626-.041.7s0,.2-.094.2a.082.082,0,0,1-.094-.093A2.743,2.743,0,0,0,86,70.994c-.051-.209-.2-.366-.585-.408-.2-.02-1.232-.03-1.483-.03-.051,0-.062.041-.062.1v.825c0,.355-.01,1.316,0,1.619.021.72.188.877,1.253.877a2.643,2.643,0,0,0,.982-.126c.271-.125.4-.345.47-.772.021-.115.042-.157.115-.157s.084.084.084.189a8.16,8.16,0,0,1-.136,1.159c-.073.271-.167.271-.564.271-.783,0-1.357-.021-1.807-.031s-.772-.031-1.086-.031c-.115,0-.345,0-.6.01s-.511.021-.72.021c-.136,0-.21-.031-.21-.1,0-.051.042-.083.168-.083a1.691,1.691,0,0,0,.375-.042c.21-.042.261-.271.3-.574.052-.439.052-1.264.052-2.225Zm3.416-4.689c.062.125,0,.156-.052.156a1.8,1.8,0,0,0-.355,0,6.311,6.311,0,0,0-1.786.616,1.071,1.071,0,0,1-.177.084.067.067,0,0,1-.063-.063c0-.042.042-.084.093-.136A19.85,19.85,0,0,1,85.311,64.3a.433.433,0,0,1,.209-.094c.073,0,.094.031.147.126C85.749,64.476,85.843,64.676,85.969,64.957Z" transform="translate(-21.502 -64.205)" fill="#13203f"/>
        <path id="Caminho_883" data-name="Caminho 883" d="M96.213,74.5c-.167-.072-.2-.125-.2-.354,0-.574.042-1.2.052-1.369s.042-.271.126-.271.1.094.1.178a2.207,2.207,0,0,0,.094.532,1.439,1.439,0,0,0,1.494,1.054,1.269,1.269,0,0,0,1.4-1.191c0-.512-.157-.992-1.024-1.671l-.48-.376a3.1,3.1,0,0,1-1.546-2.475c0-1.149.961-1.975,2.413-1.975a5.035,5.035,0,0,1,1.389.178c.094.021.147.052.147.125,0,.136-.042.439-.042,1.254,0,.23-.031.313-.115.313s-.1-.063-.1-.188a1.266,1.266,0,0,0-.271-.69,1.325,1.325,0,0,0-1.138-.512,1.1,1.1,0,0,0-1.243,1.075c0,.481.24.846,1.107,1.5l.292.219c1.264.951,1.713,1.672,1.713,2.663a2.1,2.1,0,0,1-.981,1.817,3.021,3.021,0,0,1-1.661.429A3.61,3.61,0,0,1,96.213,74.5Z" transform="translate(-22.191 -64.318)" fill="#13203f"/>
        <path id="Caminho_884" data-name="Caminho 884" d="M111.81,67.316l-1.556.042c-.606.021-.856.073-1.012.3a1.228,1.228,0,0,0-.178.366c-.021.083-.052.125-.114.125s-.094-.052-.094-.167c0-.168.2-1.117.219-1.2.031-.136.063-.2.126-.2a2.388,2.388,0,0,0,.449.126c.3.031.7.052,1.045.052h4.136a4.985,4.985,0,0,0,.72-.052,2.474,2.474,0,0,1,.282-.052c.073,0,.084.063.084.219,0,.22-.031.94-.031,1.212-.01.1-.031.168-.094.168-.084,0-.1-.052-.114-.21l-.01-.114c-.021-.271-.3-.564-1.233-.585l-1.316-.031V71.6c0,.961,0,1.786.052,2.236.031.292.094.522.408.564a4.369,4.369,0,0,0,.532.042c.115,0,.167.031.167.083,0,.073-.083.1-.2.1-.69,0-1.347-.031-1.639-.031-.241,0-.9.031-1.316.031-.135,0-.209-.031-.209-.1,0-.051.042-.083.167-.083a1.7,1.7,0,0,0,.376-.042c.209-.042.271-.271.3-.574.052-.439.052-1.264.052-2.225Z" transform="translate(-22.801 -64.318)" fill="#13203f"/>
        <path id="Caminho_885" data-name="Caminho 885" d="M125.528,69.767c0-1.588,0-1.88-.021-2.215-.021-.355-.125-.532-.355-.585a1.473,1.473,0,0,0-.375-.042c-.1,0-.168-.021-.168-.1,0-.063.084-.084.251-.084.4,0,1.055.031,1.358.031.261,0,.877-.031,1.274-.031.136,0,.22.021.22.084,0,.083-.063.1-.168.1a1.77,1.77,0,0,0-.313.031c-.282.052-.365.23-.386.6-.021.334-.021.627-.021,2.215V71.6c0,1.013,0,1.838.042,2.288.03.282.1.47.417.511a4.4,4.4,0,0,0,.532.042c.115,0,.168.031.168.083,0,.073-.084.1-.2.1-.689,0-1.347-.031-1.629-.031-.24,0-.9.031-1.316.031-.135,0-.209-.031-.209-.1,0-.051.042-.083.168-.083a1.691,1.691,0,0,0,.375-.042c.21-.042.271-.219.3-.522.052-.439.052-1.264.052-2.277Z" transform="translate(-23.549 -64.325)" fill="#13203f"/>
        <path id="Caminho_886" data-name="Caminho 886" d="M138.13,66.856c.03-.178.093-.272.177-.272s.146.052.282.324l2.851,5.807,2.841-5.88c.083-.168.135-.251.23-.251s.156.1.188.324l.951,6.392c.094.657.2.96.511,1.054a2.081,2.081,0,0,0,.648.1c.094,0,.167.01.167.072,0,.084-.125.115-.271.115-.261,0-1.7-.021-2.12-.052-.24-.021-.3-.052-.3-.114s.041-.084.114-.115.094-.157.052-.45l-.627-4.543h-.042L141.5,74.031c-.24.491-.292.585-.387.585s-.2-.209-.365-.522c-.251-.481-1.076-2.078-1.2-2.371-.094-.219-.721-1.452-1.087-2.235h-.041l-.544,4.073a4.1,4.1,0,0,0-.03.491c0,.2.135.292.312.334a2.018,2.018,0,0,0,.439.052c.084,0,.156.021.156.072,0,.094-.093.115-.251.115-.438,0-.909-.031-1.1-.031s-.7.031-1.034.031c-.1,0-.188-.021-.188-.115,0-.051.063-.072.168-.072a1.333,1.333,0,0,0,.312-.031c.292-.063.376-.471.429-.825Z" transform="translate(-24.099 -64.318)" fill="#13203f"/>
        <path id="Caminho_887" data-name="Caminho 887" d="M155.3,70.679a4.022,4.022,0,0,1,4.313-4.095c2.6,0,4.22,1.514,4.22,3.906a4.129,4.129,0,0,1-4.324,4.282A3.978,3.978,0,0,1,155.3,70.679Zm7.07.2c0-2.339-1.348-3.791-3.06-3.791-1.2,0-2.569.668-2.569,3.269,0,2.172,1.2,3.895,3.206,3.895C160.676,74.25,162.368,73.894,162.368,70.877Z" transform="translate(-25.007 -64.318)" fill="#13203f"/>
        <path id="Caminho_888" data-name="Caminho 888" d="M184.222,73.633a4.135,4.135,0,0,1-.073-5.942,4.554,4.554,0,0,1,3.3-1.108,10.282,10.282,0,0,1,1.514.1c.4.052.732.147,1.045.178.114.01.156.062.156.125,0,.084-.031.209-.052.574-.02.345-.01.919-.03,1.128-.01.157-.031.24-.126.24s-.1-.083-.1-.23a1.489,1.489,0,0,0-.407-.96,3.114,3.114,0,0,0-2.12-.648,2.721,2.721,0,0,0-1.963.648,3.9,3.9,0,0,0,2.329,6.423,2.266,2.266,0,0,0,1.911-.585,1.746,1.746,0,0,0,.355-.69c.031-.167.052-.209.136-.209s.093.072.093.156a9.842,9.842,0,0,1-.23,1.389.368.368,0,0,1-.271.3,6.035,6.035,0,0,1-1.88.241A5.214,5.214,0,0,1,184.222,73.633Z" transform="translate(-26.319 -64.318)" fill="#13203f"/>
        <path id="Caminho_889" data-name="Caminho 889" d="M198.989,70.679a4.022,4.022,0,0,1,4.313-4.095c2.6,0,4.22,1.514,4.22,3.906a4.129,4.129,0,0,1-4.323,4.282A3.978,3.978,0,0,1,198.989,70.679Zm7.07.2c0-2.339-1.347-3.791-3.059-3.791-1.2,0-2.57.668-2.57,3.269,0,2.172,1.2,3.895,3.206,3.895C204.368,74.25,206.059,73.894,206.059,70.877Z" transform="translate(-27.082 -64.318)" fill="#13203f"/>
        <path id="Caminho_890" data-name="Caminho 890" d="M218.053,73.206c.021.814.157,1.086.366,1.159a1.656,1.656,0,0,0,.543.073c.115,0,.178.021.178.083,0,.084-.094.1-.24.1-.679,0-1.1-.031-1.3-.031-.094,0-.585.031-1.128.031-.136,0-.23-.01-.23-.1,0-.062.062-.083.167-.083a1.845,1.845,0,0,0,.47-.052c.271-.084.313-.387.324-1.3l.094-6.151c0-.209.031-.355.135-.355s.21.136.387.324c.126.136,1.713,1.807,3.238,3.321.711.711,2.12,2.214,2.3,2.381h.052l-.1-4.689c-.011-.637-.1-.835-.354-.94a1.7,1.7,0,0,0-.553-.063c-.126,0-.168-.031-.168-.093,0-.084.115-.094.271-.094.543,0,1.045.031,1.264.031.114,0,.511-.031,1.023-.031.136,0,.241.01.241.094,0,.062-.063.093-.189.093a1.138,1.138,0,0,0-.313.031c-.292.084-.375.3-.386.888l-.115,6.59c0,.23-.042.324-.136.324-.114,0-.24-.115-.354-.23-.658-.627-1.995-1.995-3.081-3.07-1.138-1.128-2.3-2.4-2.485-2.6h-.031Z" transform="translate(-27.902 -64.318)" fill="#13203f"/>
        <path id="Caminho_891" data-name="Caminho 891" d="M234.59,74.5c-.167-.072-.2-.125-.2-.354,0-.574.042-1.2.052-1.369s.042-.271.125-.271.1.094.1.178a2.208,2.208,0,0,0,.094.532,1.439,1.439,0,0,0,1.494,1.054,1.269,1.269,0,0,0,1.4-1.191c0-.512-.157-.992-1.024-1.671l-.48-.376a3.1,3.1,0,0,1-1.546-2.475c0-1.149.961-1.975,2.413-1.975a5.035,5.035,0,0,1,1.389.178c.094.021.147.052.147.125,0,.136-.042.439-.042,1.254,0,.23-.031.313-.115.313s-.1-.063-.1-.188a1.266,1.266,0,0,0-.271-.69,1.325,1.325,0,0,0-1.138-.512,1.1,1.1,0,0,0-1.243,1.075c0,.481.24.846,1.107,1.5l.292.219c1.264.951,1.713,1.672,1.713,2.663a2.1,2.1,0,0,1-.981,1.817,3.022,3.022,0,0,1-1.661.429A3.61,3.61,0,0,1,234.59,74.5Z" transform="translate(-28.763 -64.318)" fill="#13203f"/>
        <path id="Caminho_892" data-name="Caminho 892" d="M248.829,69.767c0-1.588,0-1.88-.02-2.215-.021-.355-.126-.532-.355-.585a1.481,1.481,0,0,0-.376-.042c-.1,0-.167-.021-.167-.1,0-.063.083-.084.25-.084.4,0,1.054.031,1.357.031.261,0,.877-.031,1.274-.031.135,0,.219.021.219.084,0,.083-.063.1-.167.1a1.753,1.753,0,0,0-.313.031c-.282.052-.366.23-.387.6-.021.334-.021.627-.021,2.215V71.6c0,1.013,0,1.838.042,2.288.031.282.1.47.417.511a4.4,4.4,0,0,0,.533.042c.114,0,.167.031.167.083,0,.073-.084.1-.2.1-.69,0-1.348-.031-1.63-.031-.24,0-.9.031-1.315.031-.136,0-.209-.031-.209-.1,0-.051.041-.083.167-.083a1.708,1.708,0,0,0,.376-.042c.209-.042.271-.219.3-.522.051-.439.051-1.264.051-2.277Z" transform="translate(-29.405 -64.325)" fill="#13203f"/>
        <path id="Caminho_893" data-name="Caminho 893" d="M267.3,73.926c0,.282-.01.3-.135.376a5.913,5.913,0,0,1-2.518.471c-2.558,0-4.824-1.212-4.824-4.094a3.906,3.906,0,0,1,1.816-3.416,5.063,5.063,0,0,1,2.81-.679,12.519,12.519,0,0,1,1.848.168,6.824,6.824,0,0,0,.826.115c.125.01.146.051.146.125a14.051,14.051,0,0,0-.073,1.713c0,.168-.031.219-.114.219s-.094-.051-.1-.135a1.467,1.467,0,0,0-.355-.867,3.339,3.339,0,0,0-2.329-.814,3.014,3.014,0,0,0-2.068.647,3.11,3.11,0,0,0-.96,2.559,3.625,3.625,0,0,0,3.634,3.926,2.323,2.323,0,0,0,.888-.114.372.372,0,0,0,.2-.387v-.982c0-.522,0-.918-.01-1.232-.01-.355-.1-.523-.45-.6a2.139,2.139,0,0,0-.407-.031c-.094,0-.157-.021-.157-.084,0-.084.073-.1.219-.1.543,0,1.2.031,1.515.031s.877-.031,1.222-.031c.135,0,.209.021.209.1,0,.063-.063.084-.135.084a1.628,1.628,0,0,0-.282.031c-.282.051-.387.23-.4.6-.01.313-.01.731-.01,1.253Z" transform="translate(-29.971 -64.318)" fill="#13203f"/>
        <path id="Caminho_894" data-name="Caminho 894" d="M278.542,73.206c.021.814.156,1.086.366,1.159a1.651,1.651,0,0,0,.543.073c.114,0,.177.021.177.083,0,.084-.093.1-.24.1-.679,0-1.1-.031-1.3-.031-.093,0-.585.031-1.128.031-.135,0-.23-.01-.23-.1,0-.062.063-.083.167-.083a1.853,1.853,0,0,0,.471-.052c.271-.084.313-.387.324-1.3l.093-6.151c0-.209.031-.355.136-.355s.209.136.387.324c.125.136,1.713,1.807,3.238,3.321.71.711,2.119,2.214,2.3,2.381h.052l-.1-4.689c-.01-.637-.1-.835-.355-.94a1.7,1.7,0,0,0-.553-.063c-.125,0-.167-.031-.167-.093,0-.084.114-.094.272-.094.543,0,1.044.031,1.263.031.115,0,.512-.031,1.024-.031.135,0,.24.01.24.094,0,.062-.063.093-.188.093a1.131,1.131,0,0,0-.313.031c-.292.084-.376.3-.387.888l-.114,6.59c0,.23-.042.324-.136.324-.115,0-.24-.115-.355-.23-.658-.627-1.995-1.995-3.08-3.07-1.138-1.128-2.3-2.4-2.486-2.6h-.031Z" transform="translate(-30.774 -64.318)" fill="#13203f"/>
        <path id="Caminho_895" data-name="Caminho 895" d="M295.99,71.963c-.051,0-.072.021-.093.084l-.564,1.431a2.019,2.019,0,0,0-.157.637c0,.188.094.324.418.324h.156c.126,0,.157.021.157.083,0,.084-.063.1-.178.1-.333,0-.783-.031-1.107-.031-.114,0-.689.031-1.233.031-.135,0-.2-.021-.2-.1,0-.062.042-.083.126-.083a3.173,3.173,0,0,0,.324-.021c.48-.063.678-.418.888-.94L297.151,67c.125-.3.188-.418.292-.418s.156.094.261.334c.25.574,1.921,4.752,2.59,6.34.4.939.7,1.086.919,1.138a2.281,2.281,0,0,0,.438.042c.084,0,.136.01.136.083s-.094.1-.481.1-1.138,0-1.974-.021c-.188-.01-.313-.01-.313-.084s.042-.083.147-.093a.17.17,0,0,0,.093-.241l-.835-2.151a.1.1,0,0,0-.1-.073Zm2.131-.522c.052,0,.063-.031.052-.063l-.94-2.569c-.01-.042-.021-.094-.052-.094s-.052.052-.062.094l-.961,2.558c-.01.042,0,.073.042.073Z" transform="translate(-31.556 -64.318)" fill="#13203f"/>
        <path id="Caminho_896" data-name="Caminho 896" d="M310.605,69.767c0-1.588,0-1.88-.021-2.215-.021-.355-.1-.522-.45-.6a2.134,2.134,0,0,0-.407-.031c-.115,0-.178-.021-.178-.093s.073-.094.23-.094c.553,0,1.212.031,1.5.031.323,0,.981-.031,1.608-.031,1.306,0,3.05,0,4.188,1.191a3.732,3.732,0,0,1,1.013,2.653,4.149,4.149,0,0,1-1.138,2.914,4.762,4.762,0,0,1-3.5,1.233c-.375,0-.8-.031-1.2-.063s-.762-.063-1.023-.063c-.115,0-.345,0-.6.01s-.512.021-.721.021c-.135,0-.209-.031-.209-.1,0-.051.042-.083.167-.083a1.7,1.7,0,0,0,.376-.042c.209-.042.261-.271.3-.574.052-.439.052-1.264.052-2.225Zm1.3,1.149c0,1.107.01,1.911.021,2.11a2.275,2.275,0,0,0,.115.793c.136.2.543.417,1.368.417a3.357,3.357,0,0,0,2.4-.752,3.3,3.3,0,0,0,.877-2.6,3.549,3.549,0,0,0-1-2.611,4.14,4.14,0,0,0-2.966-1.045,2.78,2.78,0,0,0-.679.073.189.189,0,0,0-.126.209c-.01.355-.01,1.264-.01,2.089Z" transform="translate(-32.333 -64.325)" fill="#13203f"/>
        <path id="Caminho_897" data-name="Caminho 897" d="M327.016,70.679a4.022,4.022,0,0,1,4.313-4.095c2.6,0,4.22,1.514,4.22,3.906a4.129,4.129,0,0,1-4.323,4.282A3.978,3.978,0,0,1,327.016,70.679Zm7.07.2c0-2.339-1.347-3.791-3.06-3.791-1.2,0-2.569.668-2.569,3.269,0,2.172,1.2,3.895,3.206,3.895C332.395,74.25,334.086,73.894,334.086,70.877Z" transform="translate(-33.163 -64.318)" fill="#13203f"/>
      </g>
      <g id="Grupo_717" data-name="Grupo 717">
        <g id="Grupo_701" data-name="Grupo 701" transform="translate(79.437)">
          <g id="Grupo_684" data-name="Grupo 684" transform="translate(14.908 1.501)">
            <path id="Caminho_898" data-name="Caminho 898" d="M122.488,21.445l-7.878-.005,3.921-7.674,3.8,7.377Z" transform="translate(-114.61 -13.765)" fill="#d69400" fill-rule="evenodd"/>
          </g>
          <g id="Grupo_685" data-name="Grupo 685">
            <path id="Caminho_899" data-name="Caminho 899" d="M136.442,49.53,117.8,14.172,99.26,49.529h-.3L117.8,12.189,136.7,49.53Z" transform="translate(-98.958 -12.189)" fill="#13203f" fill-rule="evenodd"/>
          </g>
          <g id="Grupo_700" data-name="Grupo 700" transform="translate(0.211 8.753)">
            <g id="Grupo_686" data-name="Grupo 686" transform="translate(7.18 21.174)">
              <path id="Caminho_900" data-name="Caminho 900" d="M114.8,51.079h-8.086l3.992-7.471Zm-7.465-.372h6.836l-3.461-6.317Z" transform="translate(-106.718 -43.608)" fill="#13203f"/>
            </g>
            <g id="Grupo_687" data-name="Grupo 687" transform="translate(14.641 21.174)">
              <path id="Caminho_901" data-name="Caminho 901" d="M122.637,51.079h-8.086l3.992-7.471Zm-7.465-.372h6.837l-3.462-6.317Z" transform="translate(-114.551 -43.608)" fill="#13203f"/>
            </g>
            <g id="Grupo_688" data-name="Grupo 688" transform="translate(22.102 21.174)">
              <path id="Caminho_902" data-name="Caminho 902" d="M130.471,51.079h-8.087l3.992-7.471Zm-7.466-.372h6.837l-3.461-6.317Z" transform="translate(-122.384 -43.608)" fill="#13203f"/>
            </g>
            <g id="Grupo_689" data-name="Grupo 689" transform="translate(10.958 14.181)">
              <path id="Caminho_903" data-name="Caminho 903" d="M118.672,43.742h-7.988l3.994-7.476Zm-7.367-.372h6.746l-3.373-6.313Z" transform="translate(-110.684 -36.266)" fill="#13203f"/>
            </g>
            <g id="Grupo_690" data-name="Grupo 690" transform="translate(18.419 14.181)">
              <path id="Caminho_904" data-name="Caminho 904" d="M126.506,43.742h-7.989l3.994-7.476Zm-7.368-.372h6.747l-3.374-6.313Z" transform="translate(-118.517 -36.266)" fill="#13203f"/>
            </g>
            <g id="Grupo_691" data-name="Grupo 691" transform="translate(14.641 7.29)">
              <path id="Caminho_905" data-name="Caminho 905" d="M122.637,36.5h-8.086l3.992-7.471Zm-7.465-.371h6.837l-3.462-6.318Z" transform="translate(-114.551 -29.032)" fill="#13203f"/>
            </g>
            <g id="Grupo_692" data-name="Grupo 692" transform="translate(18.418)">
              <path id="Caminho_906" data-name="Caminho 906" d="M126.643,29.151h-8.126l4.183-7.773.328.176-3.888,7.224h7.5Z" transform="translate(-118.516 -21.378)" fill="#13203f"/>
            </g>
            <g id="Grupo_693" data-name="Grupo 693" transform="translate(10.856 0.292)">
              <path id="Caminho_907" data-name="Caminho 907" d="M118.769,29.166h-8.192v-.372h7.556l-3.89-6.926.325-.182Z" transform="translate(-110.577 -21.685)" fill="#13203f"/>
            </g>
            <g id="Grupo_694" data-name="Grupo 694" transform="translate(7.101 7.494)">
              <path id="Caminho_908" data-name="Caminho 908" d="M114.807,36.514h-8.173v-.372h7.53l-3.842-6.711.323-.185Z" transform="translate(-106.634 -29.246)" fill="#13203f"/>
            </g>
            <g id="Grupo_695" data-name="Grupo 695" transform="translate(22.095 7.476)">
              <path id="Caminho_909" data-name="Caminho 909" d="M130.61,36.513h-8.234l4.092-7.286.325.182-3.78,6.731h7.6Z" transform="translate(-122.377 -29.228)" fill="#13203f"/>
            </g>
            <g id="Grupo_696" data-name="Grupo 696" transform="translate(3.618 14.365)">
              <path id="Caminho_910" data-name="Caminho 910" d="M110.858,43.751h-7.879v-.372h7.232L106.3,36.647l.322-.187Z" transform="translate(-102.978 -36.46)" fill="#13203f"/>
            </g>
            <g id="Grupo_697" data-name="Grupo 697" transform="translate(25.773 14.482)">
              <path id="Caminho_911" data-name="Caminho 911" d="M134.212,43.757h-7.974l4.187-7.175.322.188-3.86,6.615h7.326Z" transform="translate(-126.237 -36.582)" fill="#13203f"/>
            </g>
            <g id="Grupo_698" data-name="Grupo 698" transform="translate(0 21.474)">
              <path id="Caminho_912" data-name="Caminho 912" d="M106.988,51.095H99.18v-.372h7.173L102.636,44.1l.325-.182Z" transform="translate(-99.18 -43.923)" fill="#13203f"/>
            </g>
            <g id="Grupo_699" data-name="Grupo 699" transform="translate(29.557 21.474)">
              <path id="Caminho_913" data-name="Caminho 913" d="M137.99,51.095h-7.78l4.028-7.172.325.182-3.716,6.617h7.144Z" transform="translate(-130.21 -43.923)" fill="#13203f"/>
            </g>
          </g>
        </g>
        <g id="Grupo_716" data-name="Grupo 716" transform="translate(0 15.869)">
          <g id="Grupo_702" data-name="Grupo 702">
            <path id="Caminho_914" data-name="Caminho 914" d="M23.208,43.544c-.143,0-.2.057-.257.229l-1.541,3.908a5.559,5.559,0,0,0-.428,1.742c0,.513.257.884,1.142.884h.428c.343,0,.428.057.428.229,0,.229-.171.286-.485.286-.913,0-2.14-.086-3.025-.086-.313,0-1.883.086-3.367.086-.371,0-.542-.057-.542-.286,0-.171.113-.229.343-.229.255,0,.655-.029.885-.056,1.313-.172,1.854-1.142,2.425-2.57L26.375,29.99c.343-.827.513-1.141.8-1.141.256,0,.428.256.712.913.685,1.569,5.251,12.984,7.077,17.32,1.085,2.568,1.913,2.968,2.512,3.111a6.313,6.313,0,0,0,1.2.113c.228,0,.371.029.371.229,0,.229-.257.286-1.313.286-1.028,0-3.111,0-5.392-.057-.514-.029-.857-.029-.857-.229,0-.171.114-.229.4-.257a.465.465,0,0,0,.257-.655l-2.283-5.879a.275.275,0,0,0-.285-.2Zm5.821-1.426c.143,0,.17-.087.143-.171L26.6,34.927c-.029-.114-.057-.257-.143-.257s-.143.143-.17.257l-2.626,6.991c-.029.113,0,.2.113.2Z" transform="translate(-15.56 -28.849)" fill="#13203f"/>
          </g>
          <g id="Grupo_703" data-name="Grupo 703" transform="translate(23.774 0.399)">
            <path id="Caminho_915" data-name="Caminho 915" d="M46.8,42.566c0,3.652,0,5.622.6,6.135.485.428,1.227.628,3.453.628,1.513,0,2.625-.029,3.339-.8a3.578,3.578,0,0,0,.742-1.711c.028-.257.086-.429.313-.429.2,0,.228.143.228.486a22.607,22.607,0,0,1-.428,3.281c-.17.628-.313.77-1.8.77-2.056,0-3.54-.057-4.823-.085-1.283-.057-2.311-.086-3.481-.086-.314,0-.942,0-1.627.029-.655,0-1.4.057-1.968.057-.371,0-.571-.086-.571-.286,0-.143.114-.229.455-.229a4.647,4.647,0,0,0,1.028-.113c.571-.115.714-.743.828-1.57.143-1.2.143-3.454.143-6.078V37.543c0-4.337,0-5.137-.057-6.049-.056-.971-.286-1.426-1.227-1.626A4.232,4.232,0,0,0,41,29.782c-.313,0-.485-.057-.485-.257s.2-.257.628-.257c1.34,0,3.138.086,3.91.086.684,0,2.767-.086,3.88-.086.4,0,.6.057.6.257s-.172.257-.513.257a7.616,7.616,0,0,0-1.114.086c-.769.142-1,.628-1.055,1.626-.057.912-.057,1.713-.057,6.049Z" transform="translate(-40.519 -29.268)" fill="#13203f"/>
          </g>
          <g id="Grupo_704" data-name="Grupo 704" transform="translate(40.869 0.171)">
            <path id="Caminho_916" data-name="Caminho 916" d="M64.946,42.555c0,2.739,0,4.88.141,6.078.087.827.257,1.454,1.114,1.57a11.951,11.951,0,0,0,1.426.113c.371,0,.485.086.485.229,0,.2-.2.286-.628.286-1.8,0-3.6-.086-4.337-.086s-2.54.086-3.624.086c-.4,0-.6-.057-.6-.286,0-.143.113-.229.428-.229A4.662,4.662,0,0,0,60.38,50.2c.571-.115.713-.743.828-1.57.143-1.2.143-3.339.143-6.078V37.532c0-4.337,0-5.137-.057-6.049-.058-.971-.286-1.426-1.228-1.626a5.856,5.856,0,0,0-1.113-.086c-.286,0-.486-.057-.486-.229,0-.229.23-.286.657-.286.741,0,1.569.03,2.311.03.743.028,1.4.056,1.8.056,1.085,0,6.877,0,7.532-.029a5.382,5.382,0,0,0,1.171-.114,1.829,1.829,0,0,1,.456-.171c.115,0,.2.113.2.257,0,.2-.144.541-.229,1.283-.029.286-.086,1.969-.143,2.312-.029.229-.086.4-.285.4s-.256-.142-.286-.455a2.807,2.807,0,0,0-.171-1.085,2.06,2.06,0,0,0-1.883-.856L65.2,30.8c-.171,0-.256.086-.256.4v7.134c0,.17.028.257.2.257l3.653-.03c.486,0,.885,0,1.284-.028a1.5,1.5,0,0,0,1.228-.514c.142-.17.2-.285.371-.285.113,0,.171.085.171.257s-.143.885-.228,1.768c-.058.572-.115,1.885-.115,2.083,0,.257,0,.543-.285.543-.171,0-.228-.2-.228-.4a3.152,3.152,0,0,0-.172-.884,1.677,1.677,0,0,0-1.455-1.028c-.712-.085-3.738-.085-4.223-.085-.142,0-.2.057-.2.256Z" transform="translate(-58.467 -29.029)" fill="#13203f"/>
          </g>
          <g id="Grupo_705" data-name="Grupo 705" transform="translate(54.427)">
            <path id="Caminho_917" data-name="Caminho 917" d="M80.349,43.544c-.143,0-.2.057-.256.229L78.55,47.681a5.559,5.559,0,0,0-.428,1.742c0,.513.257.884,1.142.884h.428c.343,0,.428.057.428.229,0,.229-.171.286-.485.286-.913,0-2.14-.086-3.025-.086-.313,0-1.883.086-3.367.086-.371,0-.542-.057-.542-.286,0-.171.114-.229.343-.229.256,0,.655-.029.885-.056,1.313-.172,1.854-1.142,2.425-2.57L83.516,29.99c.343-.827.513-1.141.8-1.141.256,0,.428.256.712.913.684,1.569,5.25,12.984,7.077,17.32,1.084,2.568,1.912,2.968,2.511,3.111a6.313,6.313,0,0,0,1.2.113c.228,0,.371.029.371.229,0,.229-.256.286-1.313.286-1.027,0-3.11,0-5.392-.057-.514-.029-.857-.029-.857-.229,0-.171.114-.229.4-.257a.465.465,0,0,0,.257-.655L87,43.744a.275.275,0,0,0-.285-.2Zm5.821-1.426c.143,0,.17-.087.143-.171l-2.568-7.02c-.029-.114-.057-.257-.143-.257s-.143.143-.17.257L80.8,41.918c-.029.113,0,.2.115.2Z" transform="translate(-72.701 -28.849)" fill="#13203f"/>
          </g>
          <g id="Grupo_706" data-name="Grupo 706" transform="translate(118.975 0.171)">
            <path id="Caminho_918" data-name="Caminho 918" d="M146.947,42.555c0,2.739,0,4.88.142,6.078.086.827.256,1.454,1.113,1.57a11.951,11.951,0,0,0,1.426.113c.371,0,.485.086.485.229,0,.2-.2.286-.628.286-1.8,0-3.6-.086-4.337-.086s-2.54.086-3.623.086c-.4,0-.6-.057-.6-.286,0-.143.114-.229.428-.229a4.662,4.662,0,0,0,1.028-.113c.571-.115.713-.743.828-1.57.143-1.2.143-3.339.143-6.078V37.532c0-4.337,0-5.137-.057-6.049-.057-.971-.286-1.426-1.228-1.626a5.856,5.856,0,0,0-1.113-.086c-.286,0-.486-.057-.486-.229,0-.229.23-.286.657-.286.741,0,1.569.03,2.311.03.743.028,1.4.056,1.8.056,1.085,0,6.877,0,7.532-.029a5.382,5.382,0,0,0,1.171-.114,1.829,1.829,0,0,1,.456-.171c.115,0,.2.113.2.257,0,.2-.143.541-.228,1.283-.029.286-.087,1.969-.144,2.312-.028.229-.086.4-.285.4s-.256-.142-.286-.455a2.807,2.807,0,0,0-.17-1.085,2.06,2.06,0,0,0-1.883-.856L147.2,30.8c-.171,0-.256.086-.256.4v7.134c0,.17.028.257.2.257l3.653-.03c.486,0,.885,0,1.285-.028a1.5,1.5,0,0,0,1.227-.514c.142-.17.2-.285.371-.285.113,0,.171.085.171.257s-.143.885-.228,1.768c-.058.572-.115,1.885-.115,2.083,0,.257,0,.543-.285.543-.171,0-.228-.2-.228-.4a3.151,3.151,0,0,0-.172-.884,1.677,1.677,0,0,0-1.455-1.028c-.712-.085-3.737-.085-4.223-.085-.141,0-.2.057-.2.256Z" transform="translate(-140.468 -29.029)" fill="#13203f"/>
          </g>
          <g id="Grupo_707" data-name="Grupo 707" transform="translate(135.131 0.399)">
            <path id="Caminho_919" data-name="Caminho 919" d="M159.94,37.543c0-4.337,0-5.137-.057-6.049-.057-.971-.343-1.455-.971-1.6a4.093,4.093,0,0,0-1.028-.113c-.285,0-.455-.057-.455-.285,0-.172.228-.23.685-.23,1.083,0,2.881.086,3.709.086.712,0,2.4-.086,3.48-.086.372,0,.6.057.6.23,0,.228-.171.285-.457.285a4.809,4.809,0,0,0-.855.086c-.771.142-1,.628-1.055,1.626-.057.912-.057,1.713-.057,6.049v5.023c0,2.767,0,5.022.113,6.249.086.771.285,1.283,1.142,1.4a11.993,11.993,0,0,0,1.454.113c.313,0,.456.086.456.229,0,.2-.228.286-.541.286-1.883,0-3.681-.086-4.453-.086-.655,0-2.454.086-3.594.086-.372,0-.571-.086-.571-.286,0-.143.113-.229.455-.229a4.661,4.661,0,0,0,1.028-.113c.571-.115.741-.6.828-1.428.143-1.2.143-3.453.143-6.22Z" transform="translate(-157.429 -29.268)" fill="#13203f"/>
          </g>
          <g id="Grupo_708" data-name="Grupo 708" transform="translate(146.632)">
            <path id="Caminho_920" data-name="Caminho 920" d="M174.44,46.94c.057,2.226.429,2.968,1,3.168a4.558,4.558,0,0,0,1.485.2c.313,0,.484.057.484.229,0,.229-.256.286-.655.286-1.855,0-3-.086-3.539-.086-.257,0-1.6.086-3.081.086-.37,0-.628-.03-.628-.286,0-.171.171-.229.455-.229a5.058,5.058,0,0,0,1.285-.143c.741-.228.855-1.055.885-3.539l.256-16.807c0-.571.087-.97.371-.97.313,0,.571.371,1.055.884.343.372,4.68,4.937,8.846,9.075,1.94,1.941,5.793,6.049,6.278,6.506h.143L188.793,32.5c-.029-1.741-.285-2.283-.97-2.569a4.678,4.678,0,0,0-1.513-.17c-.343,0-.457-.087-.457-.257,0-.228.314-.257.742-.257,1.484,0,2.854.086,3.453.086.313,0,1.4-.086,2.8-.086.371,0,.657.03.657.257,0,.171-.172.257-.514.257a3.106,3.106,0,0,0-.856.086c-.8.228-1.027.828-1.056,2.425l-.313,18.005c0,.628-.114.885-.371.885-.314,0-.657-.314-.972-.628-1.8-1.713-5.449-5.45-8.417-8.39-3.111-3.082-6.277-6.562-6.79-7.1h-.087Z" transform="translate(-169.504 -28.849)" fill="#13203f"/>
          </g>
          <g id="Grupo_709" data-name="Grupo 709" transform="translate(169.095)">
            <path id="Caminho_921" data-name="Caminho 921" d="M200.735,43.544c-.143,0-.2.057-.257.229l-1.541,3.908a5.559,5.559,0,0,0-.428,1.742c0,.513.256.884,1.141.884h.428c.343,0,.428.057.428.229,0,.229-.17.286-.485.286-.913,0-2.139-.086-3.024-.086-.314,0-1.883.086-3.368.086-.371,0-.541-.057-.541-.286,0-.171.113-.229.343-.229.255,0,.655-.029.884-.056,1.313-.172,1.855-1.142,2.425-2.57L203.9,29.99c.343-.827.514-1.141.8-1.141.255,0,.428.256.712.913.685,1.569,5.251,12.984,7.077,17.32,1.085,2.568,1.913,2.968,2.511,3.111a6.313,6.313,0,0,0,1.2.113c.229,0,.371.029.371.229,0,.229-.257.286-1.313.286-1.028,0-3.111,0-5.393-.057-.513-.029-.856-.029-.856-.229,0-.171.113-.229.4-.257a.464.464,0,0,0,.256-.655l-2.283-5.879a.274.274,0,0,0-.285-.2Zm5.82-1.426c.144,0,.171-.087.144-.171l-2.568-7.02c-.03-.114-.057-.257-.144-.257s-.143.143-.17.257l-2.626,6.991c-.028.113,0,.2.114.2Z" transform="translate(-193.087 -28.849)" fill="#13203f"/>
          </g>
          <g id="Grupo_710" data-name="Grupo 710" transform="translate(192.241)">
            <path id="Caminho_922" data-name="Caminho 922" d="M222.323,46.94c.057,2.226.429,2.968,1,3.168a4.557,4.557,0,0,0,1.485.2c.313,0,.485.057.485.229,0,.229-.257.286-.656.286-1.855,0-3-.086-3.539-.086-.257,0-1.6.086-3.081.086-.371,0-.628-.03-.628-.286,0-.171.171-.229.455-.229a5.058,5.058,0,0,0,1.285-.143c.741-.228.855-1.055.884-3.539l.257-16.807c0-.571.087-.97.37-.97.314,0,.572.371,1.056.884.343.372,4.68,4.937,8.846,9.075,1.94,1.941,5.793,6.049,6.278,6.506h.143L236.675,32.5c-.028-1.741-.285-2.283-.969-2.569a4.681,4.681,0,0,0-1.513-.17c-.343,0-.457-.087-.457-.257,0-.228.314-.257.742-.257,1.484,0,2.854.086,3.452.086.314,0,1.4-.086,2.8-.086.371,0,.656.03.656.257,0,.171-.171.257-.513.257a3.116,3.116,0,0,0-.857.086c-.8.228-1.026.828-1.055,2.425l-.313,18.005c0,.628-.114.885-.371.885-.313,0-.656-.314-.971-.628-1.8-1.713-5.449-5.45-8.417-8.39-3.111-3.082-6.277-6.562-6.79-7.1h-.087Z" transform="translate(-217.387 -28.849)" fill="#13203f"/>
          </g>
          <g id="Grupo_711" data-name="Grupo 711" transform="translate(217.871)">
            <path id="Caminho_923" data-name="Caminho 923" d="M247.834,48.111a10.764,10.764,0,0,1-3.539-8.419,10.737,10.737,0,0,1,3.339-7.817c2.055-1.884,4.765-3.025,9.017-3.025a28.311,28.311,0,0,1,4.138.285c1.084.144,2,.4,2.854.485.313.03.428.172.428.343,0,.229-.086.572-.143,1.57-.057.942-.028,2.511-.085,3.081-.029.429-.087.657-.343.657-.229,0-.285-.229-.285-.628a4.076,4.076,0,0,0-1.114-2.626c-.941-1-3.166-1.77-5.792-1.77a7.443,7.443,0,0,0-5.364,1.77c-2.083,1.913-2.626,4.623-2.626,7.391,0,6.79,5.164,10.158,8.988,10.158,2.54,0,4.081-.286,5.224-1.6a4.765,4.765,0,0,0,.97-1.883c.086-.457.143-.571.37-.571.2,0,.257.2.257.428a27.046,27.046,0,0,1-.628,3.795,1.009,1.009,0,0,1-.742.828,16.542,16.542,0,0,1-5.137.656C253.712,51.22,250.431,50.364,247.834,48.111Z" transform="translate(-244.295 -28.849)" fill="#13203f"/>
          </g>
          <g id="Grupo_712" data-name="Grupo 712" transform="translate(239.105 0.171)">
            <path id="Caminho_924" data-name="Caminho 924" d="M269.47,37.532c0-4.337,0-5.137-.056-6.049-.057-.971-.287-1.426-1.228-1.626a5.862,5.862,0,0,0-1.112-.086c-.314,0-.486-.057-.486-.257s.2-.257.628-.257c.771,0,1.6.03,2.312.03.742.028,1.4.056,1.8.056.913,0,6.592,0,7.134-.029a11.324,11.324,0,0,0,1.226-.171,2.693,2.693,0,0,1,.457-.113c.143,0,.172.113.172.257a18.021,18.021,0,0,0-.23,1.854c-.028.286-.086,1.542-.143,1.883-.028.143-.085.314-.285.314s-.257-.142-.257-.4a3.079,3.079,0,0,0-.171-1.028c-.2-.513-.486-.855-1.913-1.027-.485-.057-3.481-.114-4.052-.114-.142,0-.2.086-.2.286v7.219c0,.2.029.314.2.314.628,0,3.909,0,4.566-.057A1.992,1.992,0,0,0,279.2,38.1c.2-.23.314-.371.457-.371.114,0,.2.057.2.229s-.114.628-.229,2.083c-.029.571-.114,1.712-.114,1.912,0,.228,0,.542-.257.542A.226.226,0,0,1,279,42.24a7.527,7.527,0,0,0-.114-1.028c-.143-.571-.542-1-1.6-1.113-.543-.056-3.368-.086-4.052-.086-.143,0-.171.115-.171.286v2.255c0,.971-.029,3.595,0,4.422.057,1.97.512,2.4,3.423,2.4a7.236,7.236,0,0,0,2.683-.343c.742-.342,1.084-.942,1.283-2.111.057-.314.114-.428.314-.428.229,0,.229.228.229.512a22.482,22.482,0,0,1-.371,3.167c-.2.742-.457.742-1.541.742-2.14,0-3.71-.057-4.937-.085-1.227-.057-2.112-.086-2.968-.086-.314,0-.942,0-1.627.029-.655,0-1.4.057-1.968.057-.371,0-.571-.086-.571-.286,0-.143.114-.229.455-.229A4.648,4.648,0,0,0,268.5,50.2c.571-.115.714-.743.828-1.57.143-1.2.143-3.454.143-6.078Z" transform="translate(-266.588 -29.029)" fill="#13203f"/>
          </g>
          <g id="Grupo_713" data-name="Grupo 713" transform="translate(256.259 0.399)">
            <path id="Caminho_925" data-name="Caminho 925" d="M287.108,37.543c0-4.337,0-5.137-.057-6.049-.057-.971-.343-1.455-.971-1.6a4.093,4.093,0,0,0-1.028-.113c-.285,0-.455-.057-.455-.285,0-.172.228-.23.684-.23,1.084,0,2.882.086,3.71.086.712,0,2.4-.086,3.48-.086.371,0,.6.057.6.23,0,.228-.171.285-.457.285a4.808,4.808,0,0,0-.855.086c-.771.142-1,.628-1.055,1.626-.057.912-.057,1.713-.057,6.049v5.023c0,2.767,0,5.022.113,6.249.085.771.285,1.283,1.142,1.4a11.962,11.962,0,0,0,1.454.113c.313,0,.456.086.456.229,0,.2-.228.286-.542.286-1.883,0-3.681-.086-4.452-.086-.655,0-2.454.086-3.594.086-.372,0-.572-.086-.572-.286,0-.143.114-.229.456-.229a4.661,4.661,0,0,0,1.028-.113c.571-.115.741-.6.828-1.428.143-1.2.143-3.453.143-6.22Z" transform="translate(-284.597 -29.268)" fill="#13203f"/>
          </g>
          <g id="Grupo_714" data-name="Grupo 714" transform="translate(267.788 0.399)">
            <path id="Caminho_926" data-name="Caminho 926" d="M299.584,37.543c0-4.337,0-5.137-.057-6.049-.058-.971-.286-1.426-1.228-1.626a5.855,5.855,0,0,0-1.112-.086c-.313,0-.486-.057-.486-.257s.2-.257.628-.257c1.513,0,3.311.086,3.909.086.971,0,3.14-.086,4.024-.086a9.11,9.11,0,0,1,5.25,1.228,4.946,4.946,0,0,1,1.94,3.909c0,2.112-.885,4.051-3.766,6.391,2.539,3.2,4.509,5.736,6.192,7.5a5.673,5.673,0,0,0,3.2,1.94,4.483,4.483,0,0,0,.8.086c.23,0,.343.086.343.229,0,.229-.2.286-.541.286h-2.711a5.8,5.8,0,0,1-3.055-.543c-1.226-.655-2.311-2-3.909-4.194-1.141-1.57-2.454-3.51-2.824-3.939a.6.6,0,0,0-.514-.2l-2.482-.058c-.143,0-.229.058-.229.23v.4c0,2.653,0,4.908.143,6.107.086.827.257,1.454,1.113,1.57a13.088,13.088,0,0,0,1.4.113c.228,0,.343.086.343.229,0,.2-.2.286-.57.286-1.655,0-3.766-.086-4.2-.086-.541,0-2.339.086-3.479.086-.372,0-.572-.086-.572-.286,0-.143.114-.229.456-.229a4.662,4.662,0,0,0,1.028-.113c.571-.115.713-.743.828-1.57.143-1.2.143-3.454.143-6.078ZM302.95,39.8c0,.313.057.428.257.513a7.519,7.519,0,0,0,2.169.285,2.85,2.85,0,0,0,2.026-.485c.856-.628,1.684-1.94,1.684-4.28,0-4.053-2.683-5.222-4.367-5.222a6.263,6.263,0,0,0-1.512.113c-.2.057-.257.171-.257.4Z" transform="translate(-296.701 -29.268)" fill="#13203f"/>
          </g>
          <g id="Grupo_715" data-name="Grupo 715" transform="translate(284.372)">
            <path id="Caminho_927" data-name="Caminho 927" d="M321.76,43.544c-.143,0-.2.057-.257.229l-1.541,3.908a5.557,5.557,0,0,0-.428,1.742c0,.513.257.884,1.141.884h.428c.344,0,.429.057.429.229,0,.229-.171.286-.485.286-.914,0-2.14-.086-3.025-.086-.313,0-1.883.086-3.367.086-.371,0-.542-.057-.542-.286,0-.171.114-.229.343-.229.255,0,.655-.029.885-.056,1.312-.172,1.854-1.142,2.424-2.57l7.163-17.691c.343-.827.513-1.141.8-1.141.256,0,.428.256.712.913.685,1.569,5.251,12.984,7.077,17.32,1.085,2.568,1.913,2.968,2.511,3.111a6.33,6.33,0,0,0,1.2.113c.228,0,.371.029.371.229,0,.229-.257.286-1.313.286-1.028,0-3.111,0-5.392-.057-.514-.029-.857-.029-.857-.229,0-.171.114-.229.4-.257a.464.464,0,0,0,.257-.655l-2.283-5.879a.275.275,0,0,0-.285-.2Zm5.821-1.426c.143,0,.171-.087.143-.171l-2.568-7.02c-.03-.114-.057-.257-.143-.257s-.143.143-.171.257l-2.626,6.991c-.028.113,0,.2.114.2Z" transform="translate(-314.112 -28.849)" fill="#13203f"/>
          </g>
        </g>
      </g>
    </g>
    <g id="Grupo_726" data-name="Grupo 726" transform="translate(-5 253.152)">
      <rect id="Retângulo_906" data-name="Retângulo 906" width="312.591" height="0.372" fill="#13203f"/>
    </g>
  </g>
</svg>
