<svg xmlns="http://www.w3.org/2000/svg" xmlns:xlink="http://www.w3.org/1999/xlink" width="485.622" height="90" viewBox="0 0 485.622 90">
  <g id="Group_616" data-name="Group 616" transform="translate(-309 -247)">
    <g id="Group_612" data-name="Group 612" transform="translate(309 247)">
      <path id="Path_794" data-name="Path 794" d="M46.136,35.009,26,77.274S40.548,89.152,60.53,89.521,91.652,73.407,91.469,55.45C91.469,55.45,67.866,57.968,46.136,35.009Zm-7.67,41.024a.793.793,0,0,1-.442-1.027l12-25.766a.839.839,0,0,1,1.511.706l-12,25.765A.794.794,0,0,1,38.466,76.033Zm6.817,3.073a.8.8,0,0,1-.442-1.029l12-25.764a.839.839,0,0,1,1.513.7l-12,25.764A.8.8,0,0,1,45.283,79.106Zm8.468,2.637a.84.84,0,0,1-1.513-.7l12-25.764a.839.839,0,0,1,1.513.7ZM73.119,59.4,62.614,83.023a.851.851,0,0,1-1.523-.676L71.6,58.724a.852.852,0,0,1,1.523.677Z" transform="translate(-26 0.473)" fill="#356eb2"/>
      <g id="Group_611" data-name="Group 611" transform="translate(47.883 0)">
        <path id="Path_795" data-name="Path 795" d="M94.8,15,53,35.258S95.971,74.557,56.44,105c0,0,43.336-18.421,7.609-68.145L92.595,22.4S120.282,62.23,77.8,91.593C77.8,91.593,128.753,69.143,94.8,15Z" transform="translate(-53.002 -15)" fill="#4caf50"/>
        <path id="Path_796" data-name="Path 796" d="M68.254,39.392c1.724,3.949,4.96,4.7,7.969,5.283L79.906,57.58c-4.545-.227-6.359-6.356-6.359-6.356l-2.3.53s2.555,9.672,9.482,8.705l1.3,4.554,1.062-.3-1.277-4.479c7.545-2.174,4.85-15.018-.591-17.4a24.443,24.443,0,0,0-4.77-1.387L73.1,29.718a6.3,6.3,0,0,1,5.233,4.747l2.3-.183s-2.119-7-7.551-7.412a5.43,5.43,0,0,0-.8,0l-.926-3.243-1.06.3.892,3.128C67.237,28.239,66.042,34.325,68.254,39.392ZM80.131,45.7c3.545,1.612,6.63,10.729,1.1,11.787-.067.012-.131.02-.2.03l-3.595-12.6A12.794,12.794,0,0,1,80.131,45.7Zm-8.14-15.861,3.227,11.317c-2.807-.709-4.905-1.823-5.355-6.46C69.58,31.756,70.58,30.261,71.992,29.839Z" transform="translate(-42.058 -8.33)" fill="#4caf50"/>
      </g>
    </g>
    <g id="Group_615" data-name="Group 615" transform="translate(432.16 272.908)">
      <g id="Group_613" data-name="Group 613">
        <path id="Path_797" data-name="Path 797" d="M106.854,41.219A7.642,7.642,0,0,1,113.584,38q4.134,0,6.159,1.9t2.353,6.13h8.991q-.721-7.312-5.336-11.36t-12.167-4.045a17.755,17.755,0,0,0-9.576,2.561,16.634,16.634,0,0,0-6.34,7.359,26.145,26.145,0,0,0-2.217,11.089V54.3q0,9.861,4.809,15.509t13.2,5.648q7.671,0,12.364-4.045a15.452,15.452,0,0,0,5.2-11.09h-8.992q-.3,3.987-2.351,5.889t-6.219,1.9q-4.615,0-6.758-3.266t-2.144-10.34v-3.3Q104.623,44.441,106.854,41.219Z" transform="translate(-95.452 -28.825)" fill="#4caf50"/>
        <path id="Path_798" data-name="Path 798" d="M126.942,41.412l-.239-3.868h-8.182V69.973h8.661V48.753q1.529-3.325,6.444-3.325a23.551,23.551,0,0,1,3.118.238l.119-8.331a9.1,9.1,0,0,0-2.7-.39Q129.55,36.945,126.942,41.412Z" transform="translate(-77.612 -23.938)" fill="#4caf50"/>
        <path id="Path_799" data-name="Path 799" d="M145.3,36.945a15.011,15.011,0,0,0-7.9,2.084,13.842,13.842,0,0,0-5.35,5.935,19.582,19.582,0,0,0-1.889,8.737v.837q0,7.283,4.481,11.658a15.91,15.91,0,0,0,11.614,4.377,17.3,17.3,0,0,0,7.372-1.543,12.989,12.989,0,0,0,5.276-4.3l-4.256-4.763a9.352,9.352,0,0,1-7.822,3.626,7.656,7.656,0,0,1-5.35-1.919,8.052,8.052,0,0,1-2.532-5.095H159.6V53.04q0-7.7-3.822-11.9T145.3,36.945Zm5.785,13.729H139.038a9.038,9.038,0,0,1,2.053-5,5.409,5.409,0,0,1,4.18-1.745,5.589,5.589,0,0,1,4.256,1.578,6.462,6.462,0,0,1,1.559,4.472Z" transform="translate(-68.607 -23.938)" fill="#4caf50"/>
        <path id="Path_800" data-name="Path 800" d="M151.139,29.61H141.7l-5.9,9.291h7.043Z" transform="translate(-64.255 -29.61)" fill="#4caf50"/>
        <path id="Path_801" data-name="Path 801" d="M169.3,46.153a9.937,9.937,0,0,0-7.824-3.536,11.041,11.041,0,0,0-9.3,4.5q-3.4,4.5-3.4,12.08,0,8.033,3.463,12.543a11,11,0,0,0,9.186,4.51,10.2,10.2,0,0,0,8.331-4.045l.42,3.446H178V29.61H169.3Zm0,19.717a5.8,5.8,0,0,1-5.666,3.392,5.174,5.174,0,0,1-4.614-2.431q-1.588-2.431-1.589-7,0-10.174,6.263-10.175a5.716,5.716,0,0,1,5.605,3.392Z" transform="translate(-54.218 -29.61)" fill="#4caf50"/>
        <path id="Path_802" data-name="Path 802" d="M173.859,30.033a4.9,4.9,0,0,0-3.552,1.259,4.6,4.6,0,0,0,.03,6.444,5.555,5.555,0,0,0,7.044,0,4.581,4.581,0,0,0,.014-6.444A4.909,4.909,0,0,0,173.859,30.033Z" transform="translate(-38.573 -29.283)" fill="#4caf50"/>
        <rect id="Rectangle_806" data-name="Rectangle 806" width="8.692" height="32.429" transform="translate(130.94 13.607)" fill="#4caf50"/>
        <path id="Path_803" data-name="Path 803" d="M190.593,65.874a3.863,3.863,0,0,1-.69-2.577V47.113h5.545V40.759H189.9V32.788h-8.661v7.971h-4.735v6.354h4.735V64.587q.181,9.2,9.29,9.2a17.825,17.825,0,0,0,5.245-.778V66.446a13.8,13.8,0,0,1-2.548.209A3.461,3.461,0,0,1,190.593,65.874Z" transform="translate(-32.77 -27.152)" fill="#4caf50"/>
        <path id="Path_804" data-name="Path 804" d="M219.3,51.871q-.481-6.892-4.632-10.909a14.763,14.763,0,0,0-10.714-4.017,15.608,15.608,0,0,0-8.106,2.068,13.621,13.621,0,0,0-5.352,5.845,19.25,19.25,0,0,0-1.857,8.6v.39q0,7.733,4.18,12.227t11.195,4.5q7.014,0,11.179-4.51t4.166-11.973Zm-10.372,9.3a6.242,6.242,0,0,1-9.89-.028Q197.3,58.7,197.3,54.073q0-5.192,1.738-7.668a5.656,5.656,0,0,1,4.916-2.476,5.745,5.745,0,0,1,4.974,2.49,11.986,11.986,0,0,1,1.77,7.024Q210.7,58.759,208.931,61.172Z" transform="translate(-23.386 -23.938)" fill="#4caf50"/>
      </g>
      <g id="Group_614" data-name="Group 614" transform="translate(217.165)">
        <path id="Path_805" data-name="Path 805" d="M217.915,74.6h8.991V56.768h17.263V49.513H226.906V38.245h19.421V30.963H217.915Z" transform="translate(-217.915 -28.564)" fill="#356eb2"/>
        <path id="Path_806" data-name="Path 806" d="M261.472,40.962a14.768,14.768,0,0,0-10.714-4.017,15.61,15.61,0,0,0-8.108,2.068,13.607,13.607,0,0,0-5.35,5.845,19.228,19.228,0,0,0-1.858,8.6v.39q0,7.733,4.181,12.227t11.193,4.5q7.014,0,11.181-4.51t4.165-11.973l-.06-2.218Q265.62,44.979,261.472,40.962Zm-5.74,20.21a6.242,6.242,0,0,1-9.89-.028q-1.74-2.447-1.738-7.07,0-5.192,1.738-7.668a5.652,5.652,0,0,1,4.916-2.476,5.749,5.749,0,0,1,4.974,2.49,12,12,0,0,1,1.768,7.024Q257.5,58.759,255.731,61.172Z" transform="translate(-204.362 -23.938)" fill="#356eb2"/>
        <rect id="Rectangle_807" data-name="Rectangle 807" width="8.692" height="46.035" transform="translate(67.583 0.001)" fill="#356eb2"/>
        <path id="Path_807" data-name="Path 807" d="M282.156,42.617a10.813,10.813,0,0,0-8.663,4.137V29.61h-8.661V75.645h8.661V52.6a5.9,5.9,0,0,1,5.515-2.937,5.143,5.143,0,0,1,3.986,1.334,6.033,6.033,0,0,1,1.2,4.121v20.53h8.661V54.876Q292.7,42.619,282.156,42.617Z" transform="translate(-181.633 -29.61)" fill="#356eb2"/>
        <path id="Path_808" data-name="Path 808" d="M311.135,62.481V48.425q0-5.456-3.522-8.466T298.1,36.945a17.9,17.9,0,0,0-7.132,1.365,11.494,11.494,0,0,0-4.914,3.761,8.7,8.7,0,0,0-1.74,5.214h8.663a3.561,3.561,0,0,1,1.243-2.876,5.159,5.159,0,0,1,3.431-1.048,4.536,4.536,0,0,1,3.642,1.348,5.35,5.35,0,0,1,1.153,3.6v1.857h-3.984q-7.225.032-11.044,2.789a9.164,9.164,0,0,0-3.822,7.913,8.867,8.867,0,0,0,3.132,6.953,11.508,11.508,0,0,0,7.9,2.756,10.481,10.481,0,0,0,8.182-3.506,9.544,9.544,0,0,0,.869,2.906h8.751v-.509A15.508,15.508,0,0,1,311.135,62.481ZM302.442,60.8a5.6,5.6,0,0,1-2.4,2.293,7.438,7.438,0,0,1-3.536.855,4.418,4.418,0,0,1-3.117-1.048,3.469,3.469,0,0,1-1.138-2.669l.03-.509q.417-4.493,6.923-4.5h3.236Z" transform="translate(-167.126 -23.938)" fill="#356eb2"/>
      </g>
    </g>
  </g>
</svg>
