<svg xmlns="http://www.w3.org/2000/svg" width="408" height="120" viewBox="0 0 408 120">
    <defs>
        <style>
            .cls-1{fill:#fff}.cls-2{fill:none}.cls-3{opacity:.3}
        </style>
    </defs>
    <g id="Grupo_822" data-name="Grupo 822" transform="translate(-686 -222)">
        <g id="baseline-send-24px" transform="rotate(-90 586 -244)">
            <path id="Caminho_832" d="M2.056 117L119 60 2.056 3 2 47.333 85.571 60 2 72.667z" class="cls-1" data-name="Caminho 832"/>
            <path id="Caminho_833" d="M0 0h120v120H0z" class="cls-2" data-name="Caminho 833"/>
        </g>
        <g id="baseline-send-24px-2" class="cls-3" data-name="baseline-send-24px" transform="rotate(-90 514 -172)">
            <path id="Caminho_832-2" d="M2.056 117L119 60 2.056 3 2 47.333 85.571 60 2 72.667z" class="cls-1" data-name="Caminho 832"/>
            <path id="Caminho_833-2" d="M0 0h120v120H0z" class="cls-2" data-name="Caminho 833"/>
        </g>
        <g id="baseline-send-24px-3" class="cls-3" data-name="baseline-send-24px" transform="rotate(-90 658 -316)">
            <path id="Caminho_832-3" d="M2.056 117L119 60 2.056 3 2 47.333 85.571 60 2 72.667z" class="cls-1" data-name="Caminho 832"/>
            <path id="Caminho_833-3" d="M0 0h120v120H0z" class="cls-2" data-name="Caminho 833"/>
        </g>
    </g>
</svg>
